<svg width="852" height="799" viewBox="0 0 852 799" fill="none" xmlns="http://www.w3.org/2000/svg">
<rect width="852" height="799" fill="white"/>
<rect x="240" y="139" width="281.236" height="379.991" fill="#3576CB"/>
<rect x="318.002" y="214.855" width="203.234" height="80.8643" fill="#80ABDE"/>
<rect x="521.236" y="214.855" width="103.764" height="369.257" fill="#80ABDE"/>
<rect x="318.002" y="365.849" width="203.234" height="80.8643" fill="#80ABDE"/>
<path d="M242.83 616.454H266.481V627.37H257.014V637.713H265.875V648.09H257.014V660.084H267.425V671H242.83V616.454ZM284.574 626.292L284.338 630.537C285.394 628.852 286.651 627.594 288.111 626.763C289.571 625.91 291.233 625.483 293.098 625.483C296.736 625.483 299.6 627.167 301.689 630.537C302.834 628.852 304.126 627.594 305.563 626.763C307.001 625.91 308.596 625.483 310.348 625.483C312.661 625.483 314.57 626.044 316.075 627.167C317.603 628.291 318.58 629.672 319.006 631.312C319.433 632.929 319.646 635.568 319.646 639.229V671H306.439V641.857C306.439 638.039 306.305 635.68 306.035 634.782C305.788 633.861 305.193 633.4 304.25 633.4C303.284 633.4 302.655 633.85 302.363 634.748C302.093 635.646 301.958 638.016 301.958 641.857V671H288.751V642.598C288.751 638.218 288.639 635.59 288.415 634.714C288.212 633.838 287.628 633.4 286.663 633.4C286.056 633.4 285.54 633.636 285.113 634.108C284.686 634.557 284.45 635.119 284.405 635.792C284.36 636.444 284.338 637.848 284.338 640.004V671H271.131V626.292H284.574ZM338.21 626.292L337.975 630.233C339.188 628.639 340.524 627.448 341.984 626.662C343.444 625.876 345.039 625.483 346.768 625.483C348.879 625.483 350.699 626.056 352.226 627.201C353.776 628.324 354.742 629.627 355.124 631.109C355.505 632.592 355.696 635.107 355.696 638.656V657.49C355.696 661.555 355.449 664.453 354.955 666.182C354.483 667.889 353.495 669.259 351.99 670.292C350.508 671.303 348.711 671.809 346.6 671.809C344.915 671.809 343.354 671.416 341.917 670.629C340.479 669.843 339.165 668.675 337.975 667.125V677.368H324.363V626.292H338.21ZM342.085 639.296C342.085 636.534 341.984 634.86 341.782 634.276C341.58 633.692 341.018 633.4 340.097 633.4C339.199 633.4 338.615 633.737 338.345 634.411C338.098 635.085 337.975 636.713 337.975 639.296V657.827C337.975 660.522 338.109 662.207 338.379 662.88C338.648 663.554 339.232 663.891 340.131 663.891C341.007 663.891 341.546 663.588 341.748 662.981C341.973 662.353 342.085 660.848 342.085 658.467V639.296ZM374.227 616.454V671H360.211V616.454H374.227ZM409.939 641.992V652.941C409.939 656.962 409.737 659.916 409.333 661.802C408.929 663.667 408.064 665.418 406.739 667.058C405.414 668.675 403.707 669.877 401.618 670.663C399.551 671.427 397.17 671.809 394.475 671.809C391.465 671.809 388.916 671.483 386.827 670.832C384.738 670.158 383.11 669.158 381.942 667.833C380.796 666.485 379.977 664.868 379.482 662.981C378.988 661.072 378.741 658.22 378.741 654.424V642.969C378.741 638.813 379.19 635.568 380.089 633.232C380.987 630.896 382.604 629.021 384.94 627.605C387.276 626.19 390.264 625.483 393.902 625.483C396.957 625.483 399.574 625.943 401.752 626.864C403.954 627.763 405.649 628.942 406.84 630.402C408.03 631.862 408.839 633.367 409.266 634.917C409.715 636.466 409.939 638.825 409.939 641.992ZM396.328 638.623C396.328 636.332 396.205 634.894 395.958 634.31C395.71 633.704 395.183 633.4 394.374 633.4C393.565 633.4 393.026 633.704 392.757 634.31C392.487 634.894 392.353 636.332 392.353 638.623V658.804C392.353 660.915 392.487 662.296 392.757 662.948C393.026 663.577 393.554 663.891 394.34 663.891C395.149 663.891 395.677 663.599 395.924 663.015C396.193 662.431 396.328 661.173 396.328 659.242V638.623ZM442.957 626.292L439.049 658.635C438.442 663.756 437.926 667.249 437.499 669.113C437.095 670.978 436.41 672.516 435.444 673.729C434.478 674.942 433.13 675.829 431.401 676.391C429.694 676.975 426.954 677.267 423.18 677.267H414.926V670.124C417.037 670.124 418.396 670.023 419.002 669.821C419.609 669.596 419.912 669.113 419.912 668.372C419.912 668.013 419.631 666.452 419.07 663.689L411.624 626.292H423.989L428.436 656.445L430.592 626.292H442.957ZM476.21 649.438H458.59V659.107C458.59 661.128 458.736 662.431 459.028 663.015C459.32 663.599 459.881 663.891 460.712 663.891C461.746 663.891 462.431 663.509 462.768 662.746C463.127 661.959 463.307 660.455 463.307 658.231V652.335H476.21V655.637C476.21 658.399 476.031 660.522 475.671 662.004C475.334 663.487 474.526 665.07 473.246 666.755C471.965 668.439 470.337 669.708 468.36 670.562C466.406 671.393 463.947 671.809 460.982 671.809C458.107 671.809 455.569 671.393 453.368 670.562C451.167 669.731 449.448 668.597 448.213 667.159C447 665.699 446.158 664.104 445.686 662.375C445.214 660.623 444.979 658.085 444.979 654.761V641.722C444.979 637.814 445.506 634.737 446.562 632.491C447.618 630.222 449.347 628.493 451.75 627.302C454.154 626.089 456.917 625.483 460.039 625.483C463.857 625.483 467.001 626.213 469.472 627.673C471.965 629.11 473.706 631.031 474.694 633.434C475.705 635.815 476.21 639.173 476.21 643.508V649.438ZM462.565 642.16V638.892C462.565 636.579 462.442 635.085 462.195 634.411C461.948 633.737 461.442 633.4 460.679 633.4C459.735 633.4 459.151 633.692 458.927 634.276C458.702 634.838 458.59 636.376 458.59 638.892V642.16H462.565ZM511.519 649.438H493.898V659.107C493.898 661.128 494.044 662.431 494.336 663.015C494.628 663.599 495.19 663.891 496.021 663.891C497.054 663.891 497.739 663.509 498.076 662.746C498.436 661.959 498.615 660.455 498.615 658.231V652.335H511.519V655.637C511.519 658.399 511.339 660.522 510.98 662.004C510.643 663.487 509.834 665.07 508.554 666.755C507.274 668.439 505.646 669.708 503.669 670.562C501.715 671.393 499.255 671.809 496.291 671.809C493.416 671.809 490.877 671.393 488.676 670.562C486.475 669.731 484.757 668.597 483.521 667.159C482.309 665.699 481.466 664.104 480.995 662.375C480.523 660.623 480.287 658.085 480.287 654.761V641.722C480.287 637.814 480.815 634.737 481.871 632.491C482.926 630.222 484.656 628.493 487.059 627.302C489.462 626.089 492.225 625.483 495.347 625.483C499.166 625.483 502.31 626.213 504.781 627.673C507.274 629.11 509.015 631.031 510.003 633.434C511.014 635.815 511.519 639.173 511.519 643.508V649.438ZM497.874 642.16V638.892C497.874 636.579 497.75 635.085 497.503 634.411C497.256 633.737 496.751 633.4 495.987 633.4C495.044 633.4 494.46 633.692 494.235 634.276C494.011 634.838 493.898 636.376 493.898 638.892V642.16H497.874ZM533.351 616.454V623.36C530.543 623.36 528.881 623.495 528.365 623.765C527.871 624.012 527.624 624.742 527.624 625.955V627.37H533.351V634.445H530.117V671H516.505V634.445H513.709V627.37H516.505C516.505 624.427 516.606 622.462 516.809 621.474C517.011 620.485 517.505 619.609 518.291 618.846C519.1 618.06 520.223 617.464 521.66 617.06C523.098 616.656 525.333 616.454 528.365 616.454H533.351ZM549.961 616.454V623.562H535.945V616.454H549.961ZM549.961 626.292V671H535.945V626.292H549.961ZM568.727 626.292L568.491 630.402C569.479 628.762 570.681 627.538 572.096 626.729C573.534 625.898 575.185 625.483 577.049 625.483C579.385 625.483 581.294 626.033 582.776 627.134C584.259 628.234 585.213 629.627 585.64 631.312C586.067 632.974 586.28 635.759 586.28 639.667V671H572.669V640.038C572.669 636.96 572.568 635.085 572.366 634.411C572.164 633.737 571.602 633.4 570.681 633.4C569.715 633.4 569.109 633.793 568.862 634.58C568.615 635.343 568.491 637.41 568.491 640.779V671H554.88V626.292H568.727ZM621.959 616.454V671H608.348V667.766C607.045 669.113 605.675 670.124 604.238 670.798C602.8 671.472 601.295 671.809 599.723 671.809C597.612 671.809 595.781 671.258 594.231 670.158C592.682 669.035 591.682 667.743 591.233 666.283C590.806 664.823 590.593 662.442 590.593 659.141V638.218C590.593 634.782 590.806 632.345 591.233 630.907C591.682 629.47 592.693 628.212 594.265 627.134C595.837 626.033 597.713 625.483 599.892 625.483C601.576 625.483 603.115 625.786 604.507 626.393C605.922 626.999 607.203 627.909 608.348 629.122V616.454H621.959ZM608.348 637.544C608.348 635.905 608.202 634.804 607.91 634.243C607.641 633.681 607.09 633.4 606.259 633.4C605.451 633.4 604.9 633.659 604.608 634.175C604.339 634.669 604.204 635.792 604.204 637.544V659.444C604.204 661.263 604.339 662.465 604.608 663.049C604.878 663.61 605.395 663.891 606.158 663.891C607.034 663.891 607.618 663.577 607.91 662.948C608.202 662.296 608.348 660.724 608.348 658.231V637.544Z" fill="#3576CB"/>
</svg>
